<svg width="18" height="18" viewBox="0 0 18 18" version="1.1" xmlns="http://www.w3.org/2000/svg" xmlns:xlink="http://www.w3.org/1999/xlink">
<title>Icon</title>
<desc>Created using Figma</desc>
<g id="Canvas" transform="translate(-4226 5083)">
<g id="Icon">
<g id="Vector">
<use xlink:href="#path0_fill" transform="translate(4226 -5083)" fill="#E30613"/>
</g>
<g id="Vector">
<use xlink:href="#path1_fill" transform="translate(4236.99 -5072.01)" fill="#E30613"/>
</g>
</g>
</g>
<defs>
<path id="path0_fill" d="M 13.5 6.74999C 13.5 3.02241 10.4777 0 6.75005 0C 3.02243 0 1.76203e-12 3.02241 1.76203e-12 6.74999C 1.76203e-12 10.4776 3.02243 13.4998 6.75005 13.4998C 10.4777 13.4998 13.5 10.4776 13.5 6.74999ZM 6.75005 11.8123C 3.9584 11.8123 1.68756 9.54165 1.68756 6.75003C 1.68756 3.9584 3.9584 1.68758 6.75005 1.68758C 9.54162 1.68758 11.8126 3.9584 11.8126 6.75003C 11.8126 9.54165 9.54162 11.8123 6.75005 11.8123Z"/>
<path id="path1_fill" d="M 6.516 4.12979L 2.38651 4.25674e-07C 1.77121 0.956918 0.956926 1.77079 -2.80766e-07 2.38612L 4.12983 6.51591C 4.78912 7.17505 5.85808 7.17505 6.51596 6.51591C 7.1753 5.85784 7.1753 4.78889 6.516 4.12979Z"/>
</defs>
</svg>
