<svg width="30" height="30" viewBox="0 0 30 30" version="1.1" xmlns="http://www.w3.org/2000/svg" xmlns:xlink="http://www.w3.org/1999/xlink">
<title>Instagram</title>
<desc>Created using Figma</desc>
<g id="Canvas" transform="translate(-377 -3049)">
<g id="Instagram">
<use xlink:href="#path0_fill" transform="translate(377 3049)" fill="#E30613"/>
</g>
</g>
<defs>
<path id="path0_fill" fill-rule="evenodd" d="M 26.434 0L 3.56599 0C 1.59643 0 0 1.59234 0 3.55781L 0 26.4422C 0 28.4068 1.59643 30 3.56599 30L 26.434 30C 28.4036 30 30 28.4068 30 26.4422L 30 3.55781C 30 1.59234 28.4036 0 26.434 0ZM 21.5629 4.68667C 21.5629 4.16953 21.9826 3.74976 22.4998 3.74976L 25.3122 3.74976C 25.8301 3.74976 26.2499 4.16953 26.2499 4.68667L 26.2499 7.49986C 26.2499 8.017 25.8301 8.43677 25.3122 8.43677L 22.4998 8.43677C 21.9826 8.43677 21.5629 8.017 21.5629 7.49986L 21.5629 4.68667ZM 15.0348 9.27856C 18.2211 9.27856 20.8044 11.8561 20.8044 15.0342C 20.8044 18.2132 18.2211 20.7899 15.0348 20.7899C 11.8493 20.7899 9.26602 18.2132 9.26602 15.0342C 9.26602 11.8561 11.8493 9.27856 15.0348 9.27856ZM 27.1876 26.2492C 27.1876 26.7663 26.7678 27.1869 26.2499 27.1869L 3.75008 27.1869C 3.23212 27.1869 2.81235 26.7663 2.81235 26.2492L 2.81235 12.1865L 6.56245 12.1865C 6.07395 12.8894 5.90866 14.2011 5.90866 15.0341C 5.90866 20.0541 10.0032 24.1389 15.0348 24.1389C 20.0671 24.1389 24.1617 20.0541 24.1617 15.0341C 24.1617 14.2011 24.043 12.9099 23.4375 12.1865L 27.1876 12.1865L 27.1876 26.2492Z"/>
</defs>
</svg>
