<svg width="200" height="60" viewBox="0 0 200 60" version="1.1" xmlns="http://www.w3.org/2000/svg" xmlns:xlink="http://www.w3.org/1999/xlink">
<title>Logo</title>
<desc>Created using Figma</desc>
<g id="Canvas" transform="translate(650 -21)">
<g id="Logo">
<g id="Vector">
<use xlink:href="#path0_fill" transform="translate(-650 21)" fill="#E30613"/>
</g>
<g id="Vector">
<use xlink:href="#path1_fill" transform="translate(-589.083 35.691)" fill="#1D1D1B"/>
</g>
<g id="Vector">
<use xlink:href="#path2_fill" transform="translate(-518.767 35.691)" fill="#1D1D1B"/>
</g>
<g id="Vector">
<use xlink:href="#path3_fill" transform="translate(-628.235 35.691)" fill="#1D1D1B"/>
</g>
<g id="Vector">
<use xlink:href="#path4_fill" transform="translate(-537.91 35.691)" fill="#1D1D1B"/>
</g>
<g id="Vector">
<use xlink:href="#path5_fill" transform="translate(-610.699 35.691)" fill="#1D1D1B"/>
</g>
<g id="Vector">
<use xlink:href="#path6_fill" transform="translate(-557.252 35.691)" fill="#1D1D1B"/>
</g>
<g id="Vector">
<use xlink:href="#path7_fill" transform="translate(-463.246 35.691)" fill="#1D1D1B"/>
</g>
<g id="Vector">
<use xlink:href="#path8_fill" transform="translate(-646.586 35.691)" fill="#1D1D1B"/>
</g>
<g id="Vector">
<use xlink:href="#path9_fill" transform="translate(-500.559 35.691)" fill="#1D1D1B"/>
</g>
<g id="Vector">
<use xlink:href="#path10_fill" transform="translate(-481.791 35.691)" fill="#1D1D1B"/>
</g>
<g id="&#208;&#159;&#208;&#160;&#208;&#158;&#208;&#161;&#208;&#162;&#208;&#158; &#208;&#157;&#208;&#144;&#208;&#148;&#208;&#149;&#208;&#150;&#208;&#157;&#208;&#158;">
<use xlink:href="#path11_fill" transform="translate(-648 63)" fill="#1D1D1B"/>
</g>
</g>
</g>
<defs>
<path id="path0_fill" fill-rule="evenodd" d="M 0 0L 197.078 0C 198.969 0 200 1.19636 200 3.24914L 200 10.5959L 3.12143 10.5959L 0 0Z"/>
<path id="path1_fill" fill-rule="evenodd" d="M -6.48568e-07 5.7816e-06L 7.83944 5.7816e-06C 9.16 -0.00190096 10.4371 0.467873 11.4371 1.32339C 12.4371 2.1789 13.0932 3.36296 13.2853 4.65895C 13.5289 6.26898 13.1962 7.91276 12.3449 9.30472C 11.3222 10.8858 9.49446 11.4708 7.66942 11.6078L 4.12294 11.6078L 4.12294 18.2853L -6.48568e-07 18.2853L -6.48568e-07 5.7816e-06ZM 4.12294 8.00296L 6.77948 8.00296C 8.10775 8.00296 8.90471 7.22823 9.13051 5.75254C 9.31647 4.52456 8.49029 3.30185 7.11154 3.30185L 4.12294 3.30185L 4.12294 8.00296Z"/>
<path id="path2_fill" fill-rule="evenodd" d="M 0 5.7816e-06L 7.83678 5.7816e-06C 9.15734 -0.00190096 10.4345 0.467873 11.4345 1.32339C 12.4345 2.1789 13.0906 3.36296 13.2827 4.65895C 13.5252 6.26928 13.1916 7.91301 12.3396 9.30472C 11.3168 10.8858 9.48914 11.4708 7.6641 11.6078L 4.11497 11.6078L 4.11497 18.2853L 0 18.2853L 0 5.7816e-06ZM 4.11763 8.00296L 6.77417 8.00296C 8.10244 8.00296 8.89939 7.22823 9.1252 5.75254C 9.31115 4.52456 8.48498 3.30185 7.10889 3.30185L 4.11497 3.30185L 4.11763 8.00296Z"/>
<path id="path3_fill" fill-rule="evenodd" d="M 4.2478 7.12545L 11.8136 7.12545L 11.8136 10.6065L 4.2478 10.6065L 4.2478 13.2416C 4.2478 14.3379 4.6941 14.7068 5.45653 14.7068L 12.6159 14.7068L 12.6159 18.309L 2.92219 18.309C 1.03074 18.309 8.10711e-08 17.1127 8.10711e-08 15.0599L 8.10711e-08 0L 12.5867 0L 12.5867 3.53637L 4.2478 3.53637L 4.2478 7.12545Z"/>
<path id="path4_fill" fill-rule="evenodd" d="M 4.2478 7.12545L 11.8136 7.12545L 11.8136 10.6065L 4.2478 10.6065L 4.2478 13.2416C 4.2478 14.3379 4.6941 14.7068 5.45387 14.7068L 12.6265 14.7068L 12.6265 18.309L 2.92219 18.309C 1.03074 18.309 6.48568e-07 17.1127 6.48568e-07 15.0599L 6.48568e-07 0L 12.584 0L 12.584 3.53637L 4.2478 3.53637L 4.2478 7.12545Z"/>
<path id="path5_fill" fill-rule="evenodd" d="M 12.4538 18.2853L 11.0671 13.542L 5.54685 13.542L 4.16545 18.2853L 6.48568e-07 18.2853L 4.98101 1.13311C 5.31042 0.231893 5.7939 0 6.89637 0L 11.4656 0L 16.7521 18.2853L 12.4538 18.2853ZM 10.063 10.0268L 8.32293 4.0028L 6.57493 10.0268L 10.063 10.0268Z"/>
<path id="path6_fill" fill-rule="evenodd" d="M 13.1815 0L 13.1815 3.53637L 9.48624 3.53637C 6.4631 3.53637 4.82402 4.91719 4.25021 7.2941C 3.34699 11.036 5.25704 14.7041 10.1185 14.6725C 11.7124 14.6725 13.232 14.6725 13.232 14.6725L 13.2081 18.2748L 8.76632 18.2748C 6.79607 18.2698 4.88227 17.6216 3.32042 16.4302C 0.23087 14.0322 -0.853002 9.36006 0.709042 5.38098C 2.15685 1.69177 4.95951 0 10.0866 0L 13.1815 0Z"/>
<path id="path7_fill" fill-rule="evenodd" d="M 13.1931 0L 13.1931 3.53637L 9.50057 3.53637C 6.47743 3.53637 4.83568 4.91719 4.26187 7.2941C 3.35865 11.036 5.2687 14.7041 10.1302 14.6725C 11.7241 14.6725 13.2436 14.6725 13.2436 14.6725L 13.2224 18.2748L 8.76736 18.2748C 6.79718 18.2694 4.88349 17.6212 3.32146 16.4302C 0.226595 14.0216 -0.851964 9.36006 0.71008 5.38098C 2.16055 1.69177 4.96054 0 10.0903 0L 13.1931 0Z"/>
<path id="path8_fill" fill-rule="evenodd" d="M 1.01339e-07 18.2853L 1.01339e-07 0L 7.87132 0C 10.1666 0.0421624 11.965 1.05406 12.6743 2.9461C 13.5138 5.1649 13.0064 7.03058 11.3461 8.58796C 12.2918 9.2006 13.0383 10.072 13.4952 11.0966C 13.9017 12.069 13.9043 13.3128 13.7449 14.3879C 13.4155 16.5988 11.6383 18.1088 8.83033 18.2853L 1.01339e-07 18.2853ZM 4.29031 14.7015L 7.90054 14.6883C 8.37202 14.6658 8.81537 14.4592 9.13388 14.1136C 9.45239 13.768 9.62021 13.3116 9.60072 12.8437C 9.54494 11.8582 9.13052 10.9517 8.03868 10.8436L 4.29031 10.8436L 4.29031 14.7015ZM 4.29031 7.50228L 7.02123 7.50228C 8.15822 7.46011 8.89674 6.93045 8.95518 5.77889C 8.97852 5.51687 8.94952 5.25285 8.86985 5.00196C 8.79018 4.75108 8.6614 4.51824 8.49089 4.31679C 8.32038 4.11534 8.11148 3.94923 7.87616 3.82798C 7.64084 3.70672 7.38372 3.6327 7.11952 3.61016L 4.30625 3.61016L 4.29031 7.50228Z"/>
<path id="path9_fill" fill-rule="evenodd" d="M -5.83712e-06 18.2853L -5.83712e-06 0L 7.86865 0C 10.1639 0.0421624 11.9624 1.05406 12.6717 2.9461C 13.5138 5.1649 13.0037 7.03058 11.3434 8.58796C 12.2874 9.20253 13.0334 10.0733 13.4926 11.0966C 13.899 12.069 13.899 13.3128 13.7396 14.3879C 13.4155 16.5988 11.6356 18.1088 8.82502 18.2853L -5.83712e-06 18.2853ZM 4.29031 14.7015L 7.90319 14.6883C 8.3742 14.6651 8.81688 14.4582 9.13482 14.1127C 9.45276 13.7672 9.62022 13.3111 9.60072 12.8437C 9.54493 11.8582 9.13317 10.9517 8.03868 10.8436L 4.29031 10.8436L 4.29031 14.7015ZM 4.30625 7.50228L 7.02919 7.50228C 8.16885 7.46011 8.90472 6.93045 8.96316 5.77889C 8.98686 5.5168 8.9581 5.25265 8.87857 5.00162C 8.79904 4.75058 8.67029 4.51761 8.49971 4.31608C 8.32913 4.11456 8.1201 3.94845 7.88461 3.82731C 7.64912 3.70616 7.39181 3.63236 7.12749 3.61016L 4.30625 3.61016L 4.30625 7.50228Z"/>
<path id="path10_fill" fill-rule="evenodd" d="M 4.05918 10.5828L 4.05918 0L 6.48569e-07 0L 6.48569e-07 18.2853L 3.26222 18.2853C 6.28005 15.7292 10.1373 8.96478 10.1373 8.96478L 10.1373 18.2853L 14.1381 18.2853L 14.1381 0L 10.1373 0C 10.1373 0 7.07701 7.42586 4.05918 10.5828Z"/>
<path id="path11_fill" d="M 11.0654 14L 9.98438 14L 9.98438 2.12598L 2.74219 2.12598L 2.74219 14L 1.66113 14L 1.66113 1.20312L 11.0654 1.20312L 11.0654 14ZM 17.6024 8.78809L 17.6024 14L 16.5213 14L 16.5213 1.20312L 20.8807 1.20312C 22.2108 1.20312 23.2596 1.54297 24.0272 2.22266C 24.8006 2.90234 25.1873 3.83691 25.1873 5.02637C 25.1873 6.22754 24.8153 7.15625 24.0711 7.8125C 23.3329 8.46289 22.2606 8.78809 20.8543 8.78809L 17.6024 8.78809ZM 17.6024 7.87402L 20.8807 7.87402C 21.9295 7.87402 22.7293 7.625 23.2801 7.12695C 23.8309 6.62891 24.1063 5.93457 24.1063 5.04395C 24.1063 4.15918 23.8309 3.45606 23.2801 2.93457C 22.7352 2.40723 21.9588 2.1377 20.951 2.12598L 17.6024 2.12598L 17.6024 7.87402ZM 39.2302 8.2959C 39.2302 9.47363 39.0251 10.5078 38.6149 11.3984C 38.2106 12.2891 37.6305 12.9746 36.8747 13.4551C 36.1188 13.9355 35.2458 14.1758 34.2555 14.1758C 32.7614 14.1758 31.5544 13.6426 30.6345 12.5762C 29.7145 11.5039 29.2546 10.0596 29.2546 8.24316L 29.2546 6.9248C 29.2546 5.75879 29.4596 4.72754 29.8698 3.83105C 30.2858 2.92871 30.8718 2.2373 31.6276 1.75684C 32.3835 1.27051 33.2536 1.02734 34.238 1.02734C 35.2223 1.02734 36.0895 1.26465 36.8395 1.73926C 37.5954 2.21387 38.1784 2.88477 38.5886 3.75195C 38.9987 4.61914 39.2126 5.62402 39.2302 6.7666L 39.2302 8.2959ZM 38.1491 6.90723C 38.1491 5.36621 37.8005 4.15918 37.1032 3.28613C 36.4059 2.41309 35.4509 1.97656 34.238 1.97656C 33.0485 1.97656 32.0993 2.41602 31.3903 3.29492C 30.6872 4.16797 30.3356 5.38965 30.3356 6.95996L 30.3356 8.2959C 30.3356 9.81348 30.6872 11.0176 31.3903 11.9082C 32.0934 12.793 33.0485 13.2354 34.2555 13.2354C 35.4802 13.2354 36.4352 12.7988 37.1208 11.9258C 37.8063 11.0469 38.1491 9.8252 38.1491 8.26074L 38.1491 6.90723ZM 53.1763 10.0098C 53.0298 11.3574 52.5464 12.3887 51.7261 13.1035C 50.9116 13.8184 49.8247 14.1758 48.4654 14.1758C 47.5161 14.1758 46.6753 13.9385 45.9429 13.4639C 45.2163 12.9893 44.6538 12.3184 44.2554 11.4512C 43.857 10.5781 43.6548 9.58203 43.6489 8.46289L 43.6489 6.80176C 43.6489 5.66504 43.8482 4.65723 44.2466 3.77832C 44.645 2.89941 45.2163 2.22266 45.9605 1.74805C 46.7105 1.26758 47.5718 1.02734 48.5445 1.02734C 49.9155 1.02734 50.9966 1.39941 51.7876 2.14355C 52.5845 2.88184 53.0474 3.9043 53.1763 5.21094L 52.0864 5.21094C 51.8169 3.03711 50.6362 1.9502 48.5445 1.9502C 47.3843 1.9502 46.4585 2.38379 45.7671 3.25098C 45.0816 4.11816 44.7388 5.31641 44.7388 6.8457L 44.7388 8.41016C 44.7388 9.88672 45.0728 11.0645 45.7407 11.9434C 46.4146 12.8223 47.3228 13.2617 48.4654 13.2617C 49.5962 13.2617 50.4487 12.9922 51.023 12.4531C 51.5972 11.9082 51.9517 11.0938 52.0864 10.0098L 53.1763 10.0098ZM 66.3841 2.12598L 61.9984 2.12598L 61.9984 14L 60.9173 14L 60.9173 2.12598L 56.5404 2.12598L 56.5404 1.20312L 66.3841 1.20312L 66.3841 2.12598ZM 79.8293 8.2959C 79.8293 9.47363 79.6242 10.5078 79.2141 11.3984C 78.8098 12.2891 78.2297 12.9746 77.4738 13.4551C 76.718 13.9355 75.8449 14.1758 74.8547 14.1758C 73.3605 14.1758 72.1535 13.6426 71.2336 12.5762C 70.3137 11.5039 69.8537 10.0596 69.8537 8.24316L 69.8537 6.9248C 69.8537 5.75879 70.0588 4.72754 70.4689 3.83105C 70.885 2.92871 71.4709 2.2373 72.2268 1.75684C 72.9826 1.27051 73.8527 1.02734 74.8371 1.02734C 75.8215 1.02734 76.6887 1.26465 77.4387 1.73926C 78.1945 2.21387 78.7775 2.88477 79.1877 3.75195C 79.5979 4.61914 79.8117 5.62402 79.8293 6.7666L 79.8293 8.2959ZM 78.7482 6.90723C 78.7482 5.36621 78.3996 4.15918 77.7023 3.28613C 77.0051 2.41309 76.05 1.97656 74.8371 1.97656C 73.6477 1.97656 72.6984 2.41602 71.9895 3.29492C 71.2863 4.16797 70.9348 5.38965 70.9348 6.95996L 70.9348 8.2959C 70.9348 9.81348 71.2863 11.0176 71.9895 11.9082C 72.6926 12.793 73.6477 13.2354 74.8547 13.2354C 76.0793 13.2354 77.0344 12.7988 77.7199 11.9258C 78.4055 11.0469 78.7482 9.8252 78.7482 8.26074L 78.7482 6.90723ZM 107.934 14L 106.844 14L 106.844 7.86523L 99.5319 7.86523L 99.5319 14L 98.4509 14L 98.4509 1.20312L 99.5319 1.20312L 99.5319 6.95117L 106.844 6.95117L 106.844 1.20312L 107.934 1.20312L 107.934 14ZM 120.421 10.4141L 114.612 10.4141L 113.293 14L 112.16 14L 117.002 1.20312L 118.031 1.20312L 122.874 14L 121.749 14L 120.421 10.4141ZM 114.946 9.49121L 120.079 9.49121L 117.512 2.52148L 114.946 9.49121ZM 136.565 13.0859L 137.927 13.0859L 137.918 17.1025L 136.837 17.1025L 136.837 14L 127.187 14L 127.187 17.1025L 126.106 17.1025L 126.106 13.0859L 126.958 13.0859C 127.609 12.4063 128.133 11.416 128.532 10.1152C 128.936 8.80859 129.179 7.37891 129.261 5.82617L 129.49 1.20312L 136.565 1.20312L 136.565 13.0859ZM 128.215 13.0859L 135.484 13.0859L 135.484 2.12598L 130.527 2.12598L 130.351 5.79102C 130.275 7.31445 130.049 8.71777 129.674 10.001C 129.305 11.2842 128.819 12.3125 128.215 13.0859ZM 149.351 7.86523L 143.365 7.86523L 143.365 13.0859L 150.247 13.0859L 150.247 14L 142.284 14L 142.284 1.20312L 150.203 1.20312L 150.203 2.12598L 143.365 2.12598L 143.365 6.95117L 149.351 6.95117L 149.351 7.86523ZM 162.998 7.90918L 161.557 7.90918L 161.557 14L 160.476 14L 160.476 7.90918L 158.99 7.90918L 154.648 14L 153.277 14L 158.015 7.39062L 153.594 1.20312L 154.903 1.20312L 158.929 6.98633L 160.476 6.98633L 160.476 1.20312L 161.557 1.20312L 161.557 6.98633L 163.068 6.98633L 167.094 1.20312L 168.395 1.20312L 163.974 7.38184L 168.72 14L 167.357 14L 162.998 7.90918ZM 182.174 14L 181.084 14L 181.084 7.86523L 173.771 7.86523L 173.771 14L 172.69 14L 172.69 1.20312L 173.771 1.20312L 173.771 6.95117L 181.084 6.95117L 181.084 1.20312L 182.174 1.20312L 182.174 14ZM 197.051 8.2959C 197.051 9.47363 196.846 10.5078 196.436 11.3984C 196.032 12.2891 195.452 12.9746 194.696 13.4551C 193.94 13.9355 193.067 14.1758 192.077 14.1758C 190.583 14.1758 189.376 13.6426 188.456 12.5762C 187.536 11.5039 187.076 10.0596 187.076 8.24316L 187.076 6.9248C 187.076 5.75879 187.281 4.72754 187.691 3.83105C 188.107 2.92871 188.693 2.2373 189.449 1.75684C 190.205 1.27051 191.075 1.02734 192.059 1.02734C 193.044 1.02734 193.911 1.26465 194.661 1.73926C 195.417 2.21387 196 2.88477 196.41 3.75195C 196.82 4.61914 197.034 5.62402 197.051 6.7666L 197.051 8.2959ZM 195.97 6.90723C 195.97 5.36621 195.622 4.15918 194.925 3.28613C 194.227 2.41309 193.272 1.97656 192.059 1.97656C 190.87 1.97656 189.921 2.41602 189.212 3.29492C 188.509 4.16797 188.157 5.38965 188.157 6.95996L 188.157 8.2959C 188.157 9.81348 188.509 11.0176 189.212 11.9082C 189.915 12.793 190.87 13.2354 192.077 13.2354C 193.301 13.2354 194.257 12.7988 194.942 11.9258C 195.628 11.0469 195.97 9.8252 195.97 8.26074L 195.97 6.90723Z"/>
</defs>
</svg>
