<svg width="16" height="16" viewBox="0 0 16 16" version="1.1" xmlns="http://www.w3.org/2000/svg" xmlns:xlink="http://www.w3.org/1999/xlink">
<title>Icon</title>
<desc>Created using Figma</desc>
<g id="Canvas" transform="translate(-7255 4564)">
<g id="Icon">
<use xlink:href="#path0_fill" transform="translate(7255 -4564)" fill="#E3B206"/>
</g>
</g>
<defs>
<path id="path0_fill" fill-rule="evenodd" d="M 10.0315 5.32483C 10.1028 5.55523 10.3076 5.7358 10.5385 5.7358L 15.4656 5.7358C 15.9826 5.7358 16.1975 6.40597 15.7783 6.72414L 11.7952 9.73853C 11.6078 9.8807 11.5291 10.1276 11.6004 10.3589L 13.1232 15.2658C 13.2832 15.7819 12.72 16.2094 12.3017 15.8903L 8.3136 12.8475C 8.12663 12.7049 7.87337 12.7045 7.6864 12.8466L 3.6983 15.8852C 3.28002 16.2039 2.71728 15.7746 2.87728 15.259L 4.39956 10.3534C 4.47133 10.1225 4.3927 9.86927 4.20527 9.7271L 0.221745 6.72414C -0.197453 6.40597 0.0174034 5.7358 0.53443 5.7358L 5.4615 5.7358C 5.69281 5.7358 5.89761 5.55523 5.96892 5.32483L 7.49257 0.392736C 7.65257 -0.12292 8.34788 -0.134805 8.50743 0.38085L 10.0315 5.32483Z"/>
</defs>
</svg>
